<mxfile host="app.diagrams.net" modified="2023-08-13T01:35:09.430Z" agent="Mozilla/5.0 (Macintosh; Intel Mac OS X 10_15_7) AppleWebKit/537.36 (KHTML, like Gecko) Chrome/115.0.0.0 Safari/537.36" version="21.6.8" etag="1K41TBh9Bu9aRk4Sp0fA" type="github">
  <diagram name="페이지-1" id="KiquxWOx0tuKhyKMu8bW">
    <mxGraphModel>
      <root>
        <mxCell id="0" />
        <mxCell id="1" parent="0" />
      </root>
    </mxGraphModel>
  </diagram>
</mxfile>
